# AST/ASF file generated using VICON BodyLanguage
# -----------------------------------------------
:version 1.10
:name VICON
:units
  mass 1.0
  length 0.45
  angle deg
:documentation
   .ast/.asf automatically generated from VICON data using
   VICON BodyBuilder and BodyLanguage model FoxedUp or BRILLIANT.MOD
:root
   order TX TY TZ RX RY RZ
   axis XYZ
   position 0 0 0  
   orientation 0 0 0 
:bonedata
  begin
     id 1 
     name lhipjoint
     direction 0.677091 -0.635792 0.370561 
     length 2.74323 
     axis 0 0 0  XYZ
  end
  begin
     id 2 
     name lfemur
     direction 0.34202 -0.939693 0  
     length 7.44995  
     axis 0 0 20  XYZ
    dof rx ry rz
    limits (-160.0 20.0)
           (-70.0 70.0)
           (-60.0 70.0)
  end
  begin
     id 3 
     name ltibia
     direction 0.34202 -0.939693 0   
     length 7.34467   
     axis 0 0 20   XYZ
    dof rx
    limits (-10.0 170.0)
  end
  begin
     id 4 
     name lfoot
     direction 0.101953 -0.280114 0.954537   
     length 1.72105   
     axis -90 7.62852e-016 20   XYZ
    dof rx rz
    limits (-45.0 90.0)
           (-70.0 20.0)
  end
  begin
     id 5 
     name ltoes
     direction 1.53537e-011 -4.21915e-011 1   
     length 0.865872   
     axis -90 7.62852e-016 20   XYZ
    dof rx
    limits (-90.0 20.0)
  end
  begin
     id 6 
     name rhipjoint
     direction -0.695735 -0.620586 0.361699   
     length 2.81045  
     axis 0 0 0  XYZ 
  end
  begin
     id 7 
     name rfemur
     direction -0.34202 -0.939693 0   
     length 7.29387   
     axis 0 0 -20   XYZ
    dof rx ry rz
    limits (-160.0 20.0)
           (-70.0 70.0)
           (-70.0 60.0)
  end
  begin
     id 8 
     name rtibia
     direction -0.34202 -0.939693 0   
     length 7.44935   
     axis 0 0 -20   XYZ
    dof rx
    limits (-10.0 170.0)
 end
 begin
     id 9 
     name rfoot
     direction -0.104163 -0.286184 0.952496   
     length 1.77731  
     axis -90 -7.62852e-016 -20   XYZ
    dof rx rz
    limits (-45.0 90.0)
           (-20.0 70.0)
  end
  begin
     id 10 
     name rtoes
     direction -1.5355e-011 -4.21888e-011 1   
     length 0.892424   
     axis -90 -7.62852e-016 -20   XYZ
    dof rx
    limits (-90.0 20.0)
  end
  begin
     id 11 
     name lowerback
     direction 0.0100202 0.997226 -0.0737589   
     length 2.16892   
     axis 0 0 0   XYZ
    dof rx ry rz
    limits (-20.0 45.0)
           (-30.0 30.0)
           (-30.0 30.0)
  end
  begin
     id 12 
     name upperback
     direction 0.00432398 0.999988 -0.00215019   
     length 2.17326   
     axis 0 0 0   XYZ
    dof rx ry rz
    limits (-20.0 45.0)
           (-30.0 30.0)
           (-30.0 30.0)
  end
  begin
     id 13 
     name thorax
     direction -0.00195047 0.999485 0.0320434   
     length 2.18139   
     axis 0 0 0   XYZ
    dof rx ry rz
    limits (-20.0 45.0)
           (-30.0 30.0)
           (-30.0 30.0)
  end
  begin
     id 14 
     name lowerneck
     direction 0.00782762 0.986241 0.165128   
     length 1.88415   
     axis 0 0 0   XYZ
    dof rx ry rz
    limits (-20.0 45.0)
           (-30.0 30.0)
           (-30.0 30.0)
  end
  begin
     id 15 
     name upperneck
     direction 0.00988667 0.981098 -0.193258   
     length 1.9242   
     axis 0 0 0   XYZ
    dof rx ry rz
    limits (-20.0 45.0)
           (-30.0 30.0)
           (-30.0 30.0)
  end
  begin
     id 16
     name head
     direction 0.00252199 0.996513 -0.0833958  
     length 1.93887  
     axis 0 0 0   XYZ
    dof rx ry rz
    limits (-20.0 45.0)
           (-30.0 30.0)
           (-30.0 30.0)
  end
  begin
     id 17 
     name lclavicle
     direction 0.929492 0.368193 -0.0218667  
     length 3.5955  
     axis 0 0 0   XYZ
    dof ry rz
    limits (-20.0 10.0)
           (0.0 20.0)
  end
  begin
     id 18 
     name lhumerus
     direction 1 -4.48972e-011 1.41911e-027   
     length 5.2795   
     axis 180 -30 -90   XYZ
    dof rx ry rz
    limits (-60.0 90.0)
           (-90.0 90.0)
           (-90.0 90.0)
  end
  begin
     id 19
     name lradius
     direction 1 -4.48963e-011 7.05772e-027   
     length 3.53504   
     axis 180 -30 -90   XYZ
    dof rx
    limits (-10.0 170.0)
  end
  begin
     id 20
     name lwrist
     direction 1 -4.48957e-011 9.54866e-027   
     length 1.76752   
     axis -7.69462e-015 90 90   XYZ
    dof ry
    limits (-180.0 0.0)
 end
  begin
     id 21 
     name lhand
     direction 1 -4.48979e-011 1.90973e-026   
     length 0.667948   
     axis -1.21857e-014 90 90   XYZ
    dof rx rz
    limits (-90.0 90.0)
           (-45.0 45.0)
  end
  begin
     id 22 
     name lfingers
     direction 1 -4.48987e-011 3.81946e-026   
     length 0.538517   
     axis -2.43714e-014 90 90   XYZ
    dof rx
    limits (0.0 90.0)
  end
  begin
     id 23
     name lthumb
     direction 0.707107 -6.34962e-011 0.707107   
     length 0.773206   
     axis -90 45 2.85299e-015   XYZ
    dof rx rz
    limits (-45.0 45.0)
           (-45.0 45.0)
  end
  begin
     id 24 
     name rclavicle
     direction -0.898763 0.414256 -0.143584   
     length 3.5176  
     axis 0 0 0   XYZ 
    dof ry rz
    limits (-10.0 20.0)
           (-20.0 0.0)
  end
  begin
     id 25 
     name rhumerus
     direction -1 -4.48971e-011 1.129e-027  
     length 5.25035   
     axis 180 30 90   XYZ
    dof rx ry rz
    limits (-90.0 60.0)
           (-90.0 90.0)
           (-90.0 90.0)
  end
  begin
     id 26 
     name rradius
     direction -1 -4.48955e-011 6.34664e-027   
     length 3.58884   
     axis 180 30 90   XYZ
    dof rx
    limits (-10.0 170.0)
  end
  begin
     id 27 
     name rwrist
     direction -1 -4.48966e-011 9.54866e-027   
     length 1.79442   
     axis -7.69462e-015 -90 -90   XYZ
    dof ry
    limits (-180.0 0.0)
  end
  begin
     id 28
     name rhand
     direction -1 -4.48973e-011 1.90973e-026   
     length 0.779235   
     axis -1.21857e-014 -90 -90   XYZ
    dof rx rz
    limits (-90.0 90.0)
           (-45.0 45.0)
  end
  begin
     id 29
     name rfingers
     direction -1 -4.48984e-011 3.81946e-026   
     length 0.62824   
     axis -2.43714e-014 -90 -90   XYZ
    dof rx
    limits (0.0 90.0)
  end
  begin
     id 30
     name rthumb
     direction -0.707107 -6.34968e-011 0.707107   
     length 0.90203   
     axis -90 -45 -2.85299e-015   XYZ
    dof rx rz
    limits (-45.0 45.0)
           (-45.0 45.0)
  end
:hierarchy
  begin
    root lhipjoint rhipjoint lowerback
    lhipjoint lfemur
    lfemur ltibia
    ltibia lfoot
    lfoot ltoes
    rhipjoint rfemur
    rfemur rtibia
    rtibia rfoot
    rfoot rtoes
    lowerback upperback
    upperback thorax
    thorax lowerneck lclavicle rclavicle
    lowerneck upperneck
    upperneck head
    lclavicle lhumerus
    lhumerus lradius
    lradius lwrist
    lwrist lhand lthumb
    lhand lfingers
    rclavicle rhumerus
    rhumerus rradius
    rradius rwrist
    rwrist rhand rthumb
    rhand rfingers
  end

#!OML:ASF I:\Random Stuff\random\construction\7_22_03\Session 2\subj1.ASF
:FULLY-SPECIFIED
:DEGREES
170
root 4.09988 17.6932 -10.4589 6.27144 -6.48218 -1.92598
lowerback 8.52171 -1.51481 6.3794
upperback 0.752568 -1.23794 4.18849
thorax -4.04613 -0.691165 0.928343
lowerneck -14.2599 -7.35546 -6.65051
upperneck 41.194 -14.2311 9.99193
head 19.8103 -5.45564 3.08107
rclavicle 1.19271e-014 -1.59028e-014
rhumerus -48.9999 11.5505 -79.5381
rradius 90.4841
rwrist 19.5788
rhand -29.4513 19.2855
rfingers 7.12502
rthumb -2.78756 -10.6761
lclavicle 1.19271e-014 -1.59028e-014
lhumerus -30.7355 -14.6836 98.0158
lradius 47.0258
lwrist 33.1068
lhand -25.0742 57.6859
lfingers 7.12502
lthumb 1.43995 87.6608
rfemur -12.2343 3.03376 24.1335
rtibia 6.03163
rfoot -0.146023 -22.1701
rtoes 16.7551
lfemur -12.7062 3.14565 -10.7018
ltibia 45.8582
lfoot -6.26331 -2.70194
ltoes -21.405
171
root 4.0753 17.6962 -10.4025 6.2026 -6.91917 -1.63908
lowerback 8.71882 -1.43542 6.44353
upperback 0.870836 -1.11199 4.29216
thorax -4.02787 -0.627647 0.988344
lowerneck -14.2543 -7.33057 -6.35048
upperneck 41.2878 -14.1796 9.69853
head 19.7801 -5.41908 2.89826
rclavicle 9.54166e-015 -4.77083e-015
rhumerus -49.156 11.8375 -79.4927
rradius 90.4467
rwrist 19.184
rhand -30.0456 20.3784
rfingers 7.12502
rthumb -3.36147 -9.57488
lclavicle 9.54166e-015 -4.77083e-015
lhumerus -30.6741 -14.7437 98.1766
lradius 47.8698
lwrist 32.8885
lhand -25.0684 57.5997
lfingers 7.12502
lthumb 1.44551 87.5745
rfemur -12.372 3.68949 23.8369
rtibia 6.78864
rfoot -0.758366 -22.4916
rtoes 16.9167
lfemur -13.5599 3.12024 -11.1827
ltibia 46.4081
lfoot -7.29265 -3.1493
ltoes -22.4732
172
root 4.05175 17.697 -10.3426 6.16433 -7.50412 -1.264
lowerback 8.82952 -1.31301 6.35488
upperback 0.978299 -0.953783 4.34739
thorax -3.96981 -0.545634 1.07613
lowerneck -14.1038 -7.3306 -6.47472
upperneck 41.2945 -14.2555 9.92208
head 19.8046 -5.44588 3.02208
rclavicle 2.74323e-014 2.8625e-014
rhumerus -49.3092 12.0333 -79.4256
rradius 90.4077
rwrist 18.8888
rhand -30.3328 21.3963
rfingers 7.12502
rthumb -3.63881 -8.55239
lclavicle 2.74323e-014 2.8625e-014
lhumerus -30.6927 -14.8426 98.2902
lradius 48.6794
lwrist 32.8554
lhand -25.0416 57.3983
lfingers 7.12502
lthumb 1.47139 87.3729
rfemur -12.7914 4.48591 23.4251
rtibia 7.9978
rfoot -1.50569 -22.8276
rtoes 16.4766
lfemur -14.312 3.24072 -11.7919
ltibia 46.4858
lfoot -8.41796 -3.30049
ltoes -22.9081
173
root 4.03003 17.7004 -10.2811 6.22129 -8.12464 -0.878726
lowerback 8.78535 -1.20574 6.26717
upperback 1.07988 -0.83199 4.36773
thorax -3.8335 -0.480656 1.12781
lowerneck -13.8301 -7.38299 -6.55179
upperneck 41.1432 -14.3937 10.1193
head 19.688 -5.50274 3.10555
rclavicle 2.18663e-014 -5.08889e-014
rhumerus -49.392 12.1506 -79.3794
rradius 90.323
rwrist 19.099
rhand -30.5037 21.9402
rfingers 7.12502
rthumb -3.80391 -8.00555
lclavicle 2.18663e-014 -5.08889e-014
lhumerus -30.7304 -14.9729 98.3107
lradius 49.432
lwrist 32.9782
lhand -24.9943 57.3274
lfingers 7.12502
lthumb 1.51712 87.3017
rfemur -13.4017 5.32195 22.9836
rtibia 9.38466
rfoot -2.44689 -23.2004
rtoes 16.3736
lfemur -15.0736 3.48167 -12.4301
ltibia 46.2009
lfoot -9.62451 -3.67278
ltoes -23.0193
174
root 4.01275 17.7011 -10.2262 6.37403 -8.54947 -0.532006
lowerback 8.66368 -1.15903 6.35315
upperback 1.13293 -0.78004 4.32198
thorax -3.7102 -0.453716 1.02203
lowerneck -13.8484 -7.30175 -6.19385
upperneck 41.2905 -14.3352 9.93699
head 19.7111 -5.44079 2.97167
rclavicle -7.15625e-015 -2.70347e-014
rhumerus -49.4492 12.0742 -79.3787
rradius 90.2392
rwrist 19.9312
rhand -30.7378 22.0023
rfingers 7.12502
rthumb -4.02992 -7.93937
lclavicle -7.15625e-015 -2.70347e-014
lhumerus -30.8218 -15.2269 98.2742
lradius 50.1099
lwrist 33.2
lhand -25.0244 57.2037
lfingers 7.12502
lthumb 1.48805 87.1782
rfemur -14.0937 5.96868 22.5777
rtibia 10.7147
rfoot -3.53566 -23.5834
rtoes 17.1531
lfemur -16.0427 3.58125 -13.0556
ltibia 45.6103
lfoot -10.6456 -4.20736
ltoes -24.2122
175
root 4.00029 17.7033 -10.1791 6.69225 -8.81129 -0.241338
lowerback 8.50652 -1.16451 6.48491
upperback 1.08422 -0.788174 4.29556
thorax -3.67567 -0.459736 0.919683
lowerneck -13.8963 -7.21489 -5.99363
upperneck 41.4579 -14.2571 9.83785
head 19.786 -5.38472 2.91147
rclavicle -1.59028e-014 1.59028e-014
rhumerus -49.5056 11.9812 -79.3974
rradius 90.2337
rwrist 20.9259
rhand -30.6829 21.8804
rfingers 7.12502
rthumb -3.97693 -8.06228
lclavicle -1.59028e-014 1.59028e-014
lhumerus -30.9487 -15.4322 98.2372
lradius 50.7003
lwrist 33.415
lhand -25.0799 57.0921
lfingers 7.12502
lthumb 1.43443 87.067
rfemur -14.9022 6.2492 22.2449
rtibia 11.8704
rfoot -4.42989 -23.7296
rtoes 17.1956
lfemur -17.2358 3.50501 -13.6018
ltibia 44.8286
lfoot -11.4258 -4.5656
ltoes -25.1207
176
root 3.99092 17.7057 -10.1317 7.16135 -9.1371 0.0206286
lowerback 8.25968 -1.17488 6.54203
upperback 0.947199 -0.81073 4.31677
thorax -3.6822 -0.473639 0.909965
lowerneck -14.0035 -7.10332 -5.73311
upperneck 41.7301 -14.1239 9.60893
head 19.9132 -5.30924 2.79032
rclavicle -1.03368e-014 5.56597e-014
rhumerus -49.5727 12.0148 -79.4295
rradius 90.3279
rwrist 21.5477
rhand -30.361 21.9176
rfingers 7.12502
rthumb -3.66609 -8.03061
lclavicle -1.03368e-014 5.56597e-014
lhumerus -31.1706 -15.5781 98.1978
lradius 51.215
lwrist 33.5734
lhand -24.8322 56.9792
lfingers 7.12502
lthumb 1.67367 86.9523
rfemur -15.8103 6.40726 21.9388
rtibia 12.8633
rfoot -5.12938 -23.6585
rtoes 16.5835
lfemur -18.5735 3.48894 -14.1036
ltibia 43.9019
lfoot -11.9773 -4.9274
ltoes -25.148
177
root 3.98341 17.7008 -10.0695 7.18127 -9.71559 0.213207
lowerback 8.39889 -1.17508 6.58155
upperback 0.922197 -0.790216 4.37019
thorax -3.78551 -0.466504 0.945116
lowerneck -13.9624 -6.97129 -5.49964
upperneck 41.9513 -13.9161 9.32225
head 19.9462 -5.22501 2.66321
rclavicle 2.42517e-014 -1.11319e-014
rhumerus -49.6771 12.2112 -79.4659
rradius 90.5598
rwrist 21.5779
rhand -30.0221 21.8007
rfingers 7.12502
rthumb -3.33883 -8.15293
lclavicle 2.42517e-014 -1.11319e-014
lhumerus -31.5028 -15.6434 98.2003
lradius 51.6324
lwrist 33.6344
lhand -24.523 56.8617
lfingers 7.12502
lthumb 1.97228 86.8324
rfemur -16.0902 6.73044 21.7344
rtibia 13.6777
rfoot -5.73873 -23.5486
rtoes 16.0423
lfemur -19.2695 3.58033 -14.5205
ltibia 42.9195
lfoot -12.5211 -5.43436
ltoes -24.5187
178
root 3.97495 17.6973 -10.0023 7.28341 -10.295 0.314284
lowerback 8.4046 -1.18523 6.63316
upperback 0.903845 -0.794045 4.47313
thorax -3.80743 -0.469692 1.02509
lowerneck -13.9308 -6.84385 -5.27564
upperneck 42.0801 -13.725 9.09832
head 19.935 -5.14341 2.56013
rclavicle -5.56597e-014 2.70347e-014
rhumerus -49.7212 12.4556 -79.4801
rradius 90.8408
rwrist 21.2558
rhand -29.6009 21.461
rfingers 7.12502
rthumb -2.93207 -8.49854
lclavicle -5.56597e-014 2.70347e-014
lhumerus -31.728 -15.3871 98.2107
lradius 51.8439
lwrist 33.4204
lhand -24.3529 56.9179
lfingers 7.12502
lthumb 2.13652 86.8869
rfemur -16.3348 7.06526 21.6179
rtibia 14.2926
rfoot -6.15323 -23.4831
rtoes 15.191
lfemur -20.0113 3.74373 -14.8467
ltibia 41.916
lfoot -13.0679 -5.55203
ltoes -25.2686
